<?xml version="1.0" encoding="utf-8"?>
<!-- Generator: Adobe Illustrator 14.0.0, SVG Export Plug-In  -->
<!DOCTYPE svg PUBLIC "-//W3C//DTD SVG 1.1 Basic//EN" "http://www.w3.org/Graphics/SVG/1.1/DTD/svg11-basic.dtd" [
	<!ENTITY ns_flows "http://ns.adobe.com/Flows/1.0/">
]>
<svg version="1.1" baseProfile="basic"
	 xmlns="http://www.w3.org/2000/svg" xmlns:xlink="http://www.w3.org/1999/xlink" xmlns:a="http://ns.adobe.com/AdobeSVGViewerExtensions/3.0/"
	 x="0px" y="0px" width="500px" height="500px" viewBox="0 0 500 500" enable-background="new 0 0 500 500" xml:space="preserve">
<path fill="#A5A5A5" d="M391.379,376.045c4.629-1.646,4.629-4.339,0-5.986l-19.107-6.794c-4.629-1.646-6.691-6.624-4.582-11.061
	l8.706-18.315c2.109-4.438,0.205-6.342-4.233-4.233l-18.315,8.706c-4.438,2.109-9.415,0.047-11.061-4.582l-6.794-19.107
	c-1.646-4.629-4.34-4.629-5.986,0l-6.794,19.107c-1.646,4.629-6.624,6.691-11.061,4.582l-18.315-8.707
	c-4.438-2.109-6.342-0.205-4.233,4.233l8.706,18.315c2.109,4.438,0.047,9.415-4.582,11.061l-19.106,6.794
	c-4.629,1.646-4.629,4.34,0,5.986l19.106,6.794c4.629,1.646,6.691,6.624,4.582,11.061l-8.706,18.315
	c-2.109,4.438-0.205,6.342,4.233,4.233l18.315-8.706c4.438-2.109,9.415-0.047,11.061,4.582l6.794,19.106
	c1.646,4.629,4.34,4.629,5.986,0l6.794-19.107c1.646-4.629,6.624-6.691,11.061-4.582l18.315,8.706
	c4.438,2.109,6.342,0.205,4.233-4.233L367.69,393.9c-2.109-4.438-0.047-9.415,4.582-11.061L391.379,376.045z M333,391.316
	c-10.086,0-18.264-8.177-18.264-18.264c0-10.086,8.177-18.264,18.264-18.264c10.087,0,18.264,8.177,18.264,18.264
	C351.264,383.139,343.087,391.316,333,391.316z"/>

</g>
</svg>
