<?xml version="1.0" encoding="UTF-8" standalone="no"?>
<!-- Generator: Adobe Illustrator 16.0.0, SVG Export Plug-In . SVG Version: 6.00 Build 0)  -->

<svg
   xmlns:dc="http://purl.org/dc/elements/1.1/"
   xmlns:cc="http://creativecommons.org/ns#"
   xmlns:rdf="http://www.w3.org/1999/02/22-rdf-syntax-ns#"
   xmlns:svg="http://www.w3.org/2000/svg"
   xmlns="http://www.w3.org/2000/svg"
   xmlns:sodipodi="http://sodipodi.sourceforge.net/DTD/sodipodi-0.dtd"
   xmlns:inkscape="http://www.inkscape.org/namespaces/inkscape"
   version="1.1"
   id="图层_1"
   x="0px"
   y="0px"
   width="157.27px"
   height="78.667px"
   viewBox="0 0 157.27 78.667"
   xml:space="preserve"
   inkscape:version="0.48.2 r9819"
   sodipodi:docname="TJM_Line_3_icon.svg"><metadata
   id="metadata35"><rdf:RDF><cc:Work
       rdf:about=""><dc:format>image/svg+xml</dc:format><dc:type
         rdf:resource="http://purl.org/dc/dcmitype/StillImage" /></cc:Work></rdf:RDF></metadata><defs
   id="defs33" /><sodipodi:namedview
   pagecolor="#ffffff"
   bordercolor="#666666"
   borderopacity="1"
   objecttolerance="10"
   gridtolerance="10"
   guidetolerance="10"
   inkscape:pageopacity="0"
   inkscape:pageshadow="2"
   inkscape:window-width="686"
   inkscape:window-height="480"
   id="namedview31"
   showgrid="false"
   inkscape:zoom="1.9965664"
   inkscape:cx="44.576531"
   inkscape:cy="16.293946"
   inkscape:window-x="991"
   inkscape:window-y="282"
   inkscape:window-maximized="0"
   inkscape:current-layer="图层_1" />
<path
   fill="#F5D312"
   d="M157.27,70.163c0,4.697-3.807,8.504-8.504,8.504H8.504C3.807,78.667,0,74.86,0,70.163V8.503  C0,3.807,3.807,0,8.504,0h140.262c4.697,0,8.504,3.808,8.504,8.504V70.163z"
   id="path3"
   style="fill:#8ac63f;fill-opacity:1" />
<g
   id="g5">
	<path
   fill="#FFFFFF"
   d="M102.776,25.103c1.78,0,3.375-0.046,4.781-0.141v2.531c-1.406-0.092-3.001-0.141-4.781-0.141H87.448   c-0.376,1.314-0.798,2.767-1.266,4.359h16.594c-0.281,1.501-0.492,2.767-0.633,3.797c-0.141,1.033-0.352,2.274-0.633,3.727   s-0.844,2.437-1.688,2.953c-0.844,0.514-3.516,0.914-8.016,1.195c-0.376-1.033-0.844-2.109-1.406-3.234   c3.375,0.092,5.507,0.092,6.398,0c0.89-0.095,1.477-0.584,1.758-1.477c0.281-0.89,0.563-2.412,0.844-4.57H82.667   c0.844-2.25,1.499-4.5,1.968-6.75h-3.375c-1.969,0-3.797,0.049-5.484,0.141v-2.531c1.688,0.095,3.516,0.141,5.484,0.141H102.776z    M101.792,16.947c0,1.782,0.046,3.47,0.141,5.063h-20.39c0.092-1.312,0.141-2.858,0.141-4.641c0-1.874-0.048-3.607-0.141-5.203   h20.39C101.837,13.572,101.792,15.167,101.792,16.947z M99.12,19.759v-5.344H84.354v5.344H99.12z"
   id="path7" />
	<path
   fill="#FFFFFF"
   d="M117.893,16.033c-0.892,1.547-2.087,3.445-3.586,5.695c2.25-0.092,3.797-0.141,4.641-0.141   c0.844-1.406,1.593-2.953,2.25-4.641c0.937,0.657,1.969,1.174,3.094,1.547c-0.938,0.938-1.898,2.204-2.883,3.797   c-0.984,1.596-2.696,4.313-5.133,8.156c2.531-0.187,4.781-0.373,6.75-0.563c-0.281,0.938-0.422,1.736-0.422,2.391   c-0.657,0-2.109,0.119-4.359,0.352c-2.25,0.235-4.078,0.541-5.484,0.914c-0.095-0.936-0.376-1.92-0.844-2.953   c1.125-0.281,2.155-1.03,3.094-2.25c0.937-1.217,1.921-2.764,2.953-4.641c-3.094,0.189-5.063,0.563-5.906,1.125   c-0.281-1.03-0.703-2.061-1.266-3.094c1.218-0.844,2.391-2.226,3.516-4.148c1.125-1.92,2.155-4.148,3.094-6.68   c0.937,0.657,2.015,1.174,3.234,1.547C119.697,13.291,118.783,14.486,117.893,16.033z M124.151,37.337   c-2.345,0.471-4.454,0.938-6.328,1.406c-1.876,0.471-3.61,0.984-5.203,1.547c-0.281-1.03-0.798-2.061-1.547-3.094   c2.624-0.281,4.641-0.538,6.047-0.773c1.406-0.232,3.749-0.725,7.031-1.477C124.056,35.98,124.056,36.775,124.151,37.337z    M129.073,15.681c0-1.406-0.141-2.953-0.422-4.641c1.218,0.095,2.483,0.235,3.797,0.422c-0.281,0.563-0.47,1.477-0.563,2.742   c-0.095,1.266-0.095,3.072,0,5.414l4.781-0.844c1.593-0.373,3.187-0.795,4.781-1.266l0.563,2.672   c-1.595,0.189-3.234,0.422-4.922,0.703l-5.063,0.984c0,1.501,0.093,2.813,0.281,3.938l5.484-0.984   c1.874-0.373,3.656-0.844,5.344-1.406l0.422,2.672c-1.688,0.281-3.47,0.611-5.344,0.984l-5.484,0.984   c0.187,1.877,0.655,3.61,1.406,5.203c0.844-0.654,1.663-1.406,2.461-2.25c0.796-0.844,1.522-1.779,2.18-2.813   c1.406,1.125,2.483,1.877,3.234,2.25c-1.22,0.563-2.18,1.195-2.883,1.898s-1.853,1.807-3.445,3.305   c1.125,1.877,2.132,3.072,3.023,3.586c0.89,0.517,1.522,0.541,1.898,0.07c0.374-0.468,0.703-1.452,0.984-2.953   c0.844,0.657,1.828,1.174,2.953,1.547c-1.595,4.124-3.329,5.787-5.203,4.992c-1.876-0.798-3.845-2.65-5.906-5.555   c-1.313,1.033-2.602,1.993-3.867,2.883s-2.837,1.804-4.711,2.742c-0.47-0.938-1.173-1.782-2.109-2.531   c1.874-0.654,3.468-1.357,4.781-2.109c1.312-0.749,2.813-1.828,4.5-3.234c-0.844-1.874-1.454-4.078-1.828-6.609   c-2.813,0.471-4.781,0.893-5.906,1.266l-0.422-2.672c1.125,0,3.046-0.281,5.766-0.844c-0.188-1.498-0.281-2.764-0.281-3.797   c-2.531,0.563-4.267,0.984-5.203,1.266l-0.563-2.672c0.937,0,2.765-0.281,5.484-0.844V15.681z M134.276,13.572l2.25-1.125   c0.374,0.471,1.312,1.596,2.813,3.375c-0.938,0.376-1.735,0.844-2.391,1.406C136.291,16.198,135.401,14.978,134.276,13.572z"
   id="path9" />
</g>
<g
   id="g11">
	<path
   d="m 80.935998,64.535 v -14.91 h 3.035 v 12.376 h 7.547 v 2.533 h -10.582 z"
   id="path13"
   inkscape:connector-curvature="0"
   style="fill:#ffffff" />
	<path
   d="m 93.660998,52.168 v -2.666 h 2.882 v 2.666 h -2.882 z m 0,12.367 v -10.89 h 2.882 v 10.89 h -2.882 z"
   id="path15"
   inkscape:connector-curvature="0"
   style="fill:#ffffff" />
	<path
   d="m 109.401,64.535 h -2.882 v -5.558 c 0,-1.176 -0.062,-1.937 -0.185,-2.281 -0.123,-0.346 -0.323,-0.613 -0.6,-0.806 -0.277,-0.19 -0.61,-0.287 -1,-0.287 -0.499,0 -0.946,0.138 -1.343,0.41 -0.396,0.274 -0.669,0.637 -0.815,1.088 -0.147,0.451 -0.221,1.285 -0.221,2.502 v 4.932 H 99.473998 V 53.645 H 102.15 v 1.6 c 0.95,-1.23 2.146,-1.846 3.589,-1.846 0.636,0 1.217,0.114 1.743,0.344 0.526,0.229 0.925,0.521 1.194,0.876 0.271,0.356 0.458,0.76 0.564,1.211 0.105,0.451 0.159,1.097 0.159,1.938 v 6.767 z"
   id="path17"
   inkscape:connector-curvature="0"
   style="fill:#ffffff" />
	<path
   d="m 118.63,61.069 2.871,0.481 c -0.369,1.054 -0.952,1.854 -1.748,2.405 -0.797,0.55 -1.793,0.825 -2.989,0.825 -1.894,0 -3.295,-0.618 -4.204,-1.855 -0.718,-0.991 -1.077,-2.242 -1.077,-3.754 0,-1.805 0.472,-3.218 1.415,-4.239 0.943,-1.022 2.137,-1.533 3.579,-1.533 1.62,0 2.898,0.535 3.835,1.604 0.937,1.07 1.384,2.709 1.343,4.917 h -7.219 c 0.021,0.854 0.253,1.52 0.697,1.994 0.444,0.476 0.998,0.713 1.661,0.713 0.451,0 0.831,-0.123 1.139,-0.369 0.308,-0.246 0.539,-0.642 0.697,-1.189 z m 0.164,-2.912 c -0.021,-0.834 -0.236,-1.468 -0.646,-1.902 -0.41,-0.434 -0.909,-0.651 -1.497,-0.651 -0.629,0 -1.148,0.229 -1.559,0.688 -0.411,0.459 -0.611,1.08 -0.604,1.866 h 4.306 z"
   id="path19"
   inkscape:connector-curvature="0"
   style="fill:#ffffff" />
	
	<path
   d="m 128.852,60.546 2.789,-0.339 c 0.089,0.711 0.328,1.255 0.718,1.63 0.39,0.377 0.861,0.564 1.415,0.564 0.595,0 1.095,-0.226 1.502,-0.677 0.406,-0.451 0.61,-1.06 0.61,-1.825 0,-0.725 -0.195,-1.299 -0.585,-1.723 -0.39,-0.424 -0.864,-0.636 -1.425,-0.636 -0.369,0 -0.811,0.071 -1.323,0.216 l 0.318,-2.349 c 0.779,0.021 1.374,-0.148 1.784,-0.508 0.41,-0.358 0.615,-0.835 0.615,-1.431 0,-0.505 -0.15,-0.908 -0.451,-1.209 -0.301,-0.301 -0.701,-0.451 -1.2,-0.451 -0.492,0 -0.912,0.171 -1.261,0.512 -0.349,0.343 -0.561,0.842 -0.636,1.498 l -2.656,-0.451 c 0.185,-0.909 0.463,-1.636 0.836,-2.18 0.372,-0.543 0.892,-0.971 1.559,-1.281 0.666,-0.312 1.413,-0.467 2.24,-0.467 1.415,0 2.55,0.451 3.404,1.354 0.704,0.738 1.057,1.572 1.057,2.502 0,1.319 -0.722,2.372 -2.164,3.158 0.861,0.185 1.55,0.599 2.066,1.24 0.516,0.644 0.774,1.419 0.774,2.328 0,1.319 -0.482,2.444 -1.446,3.373 -0.964,0.931 -2.163,1.395 -3.599,1.395 -1.36,0 -2.488,-0.391 -3.384,-1.174 -0.893,-0.781 -1.413,-1.804 -1.557,-3.069 z"
   id="path23"
   inkscape:connector-curvature="0"
   style="fill:#ffffff" />
</g>
<g
   id="g25"
   transform="translate(-13.024002,0)">
	
	<path
   d="m 36.47,50.307 6.152,-0.82 c 0.706,3.486 1.908,5.999 3.606,7.536 1.697,1.539 3.765,2.308 6.204,2.308 2.894,0 5.337,-1.002 7.332,-3.008 1.994,-2.005 2.991,-4.488 2.991,-7.451 0,-2.825 -0.923,-5.155 -2.769,-6.989 -1.846,-1.834 -4.193,-2.752 -7.041,-2.752 -1.162,0 -2.609,0.229 -4.341,0.684 l 0.684,-5.4 c 0.41,0.046 0.74,0.068 0.991,0.068 2.62,0 4.979,-0.684 7.075,-2.051 2.096,-1.367 3.145,-3.475 3.145,-6.323 0,-2.256 -0.764,-4.124 -2.29,-5.605 -1.527,-1.48 -3.498,-2.222 -5.913,-2.222 -2.393,0 -4.387,0.752 -5.981,2.256 -1.595,1.504 -2.621,3.76 -3.076,6.768 l -6.152,-1.094 c 0.752,-4.124 2.461,-7.319 5.127,-9.588 2.666,-2.267 5.981,-3.4 9.946,-3.4 2.734,0 5.252,0.587 7.554,1.76 2.301,1.175 4.062,2.775 5.281,4.803 1.219,2.028 1.829,4.182 1.829,6.46 0,2.165 -0.581,4.136 -1.743,5.913 -1.162,1.777 -2.883,3.19 -5.161,4.238 2.962,0.684 5.264,2.102 6.904,4.256 1.641,2.152 2.461,4.848 2.461,8.083 0,4.375 -1.595,8.083 -4.785,11.126 -3.19,3.041 -7.224,4.563 -12.1,4.563 -4.398,0 -8.049,-1.31 -10.955,-3.931 C 38.538,57.873 36.88,54.477 36.47,50.307 z"
   id="path29"
   inkscape:connector-curvature="0"
   style="fill:#ffffff" />
</g>
</svg>